HIERARCHY
ROOT pelvis
{
	OFFSET 0.000000 0.000000 0.924753
	CHANNELS 6 Xposition Yposition Zposition Xrotation Yrotation Zrotation
	JOINT spine
	{
		OFFSET 0.000000 0.000000 0.000000
		CHANNELS 6 Xposition Yposition Zposition Xrotation Yrotation Zrotation
		JOINT spine.001
		{
			OFFSET 0.000000 -0.014500 0.276682
			CHANNELS 3 Xrotation Yrotation Zrotation
			JOINT neck
			{
				OFFSET 0.000000 0.033765 0.274997
				CHANNELS 6 Xposition Yposition Zposition Xrotation Yrotation Zrotation
				JOINT face
				{
					OFFSET 0.000000 0.003762 0.215541
					CHANNELS 6 Xposition Yposition Zposition Xrotation Yrotation Zrotation
					End Site
					{
						OFFSET 0.000000 -0.037497 -0.008818
					}
				}
			}
			JOINT shoulder.L
			{
				OFFSET 0.000000 0.033765 0.274997
				CHANNELS 6 Xposition Yposition Zposition Yrotation Xrotation Zrotation
				JOINT upper_arm.L
				{
					OFFSET 0.180307 0.000000 0.000000
					CHANNELS 6 Xposition Yposition Zposition Xrotation Yrotation Zrotation
					JOINT forearm.L
					{
						OFFSET 0.298295 0.000132 0.001098
						CHANNELS 6 Xposition Yposition Zposition Xrotation Yrotation Zrotation
						End Site
						{
							OFFSET 0.260481 -0.004425 -0.001511
						}
					}
				}
			}
			JOINT shoulder.R
			{
				OFFSET 0.000000 0.033765 0.274997
				CHANNELS 6 Xposition Yposition Zposition Yrotation Xrotation Zrotation
				JOINT upper_arm.R
				{
					OFFSET -0.180307 0.000000 0.000000
					CHANNELS 6 Xposition Yposition Zposition Xrotation Yrotation Zrotation
					JOINT forearm.R
					{
						OFFSET -0.295075 0.000132 0.001098
						CHANNELS 6 Xposition Yposition Zposition Xrotation Yrotation Zrotation
						End Site
						{
							OFFSET -0.269439 -0.004582 -0.001512
						}
					}
				}
			}
		}
	}
	JOINT pelvis.L
	{
		OFFSET 0.000000 0.000000 0.000000
		CHANNELS 6 Xposition Yposition Zposition Yrotation Xrotation Zrotation
		End Site
		{
			OFFSET 0.105933 0.000000 0.000000
		}
	}
	JOINT pelvis.R
	{
		OFFSET 0.000000 0.000000 0.000000
		CHANNELS 6 Xposition Yposition Zposition Yrotation Xrotation Zrotation
		End Site
		{
			OFFSET -0.105933 0.000000 0.000000
		}
	}
	JOINT thigh.L
	{
		OFFSET 0.105933 0.000000 0.000000
		CHANNELS 6 Xposition Yposition Zposition Xrotation Yrotation Zrotation
		JOINT shin.L
		{
			OFFSET 0.022250 0.000000 -0.424548
			CHANNELS 6 Xposition Yposition Zposition Xrotation Yrotation Zrotation
			JOINT foot.L
			{
				OFFSET 0.021374 0.000000 -0.407838
				CHANNELS 3 Xrotation Yrotation Zrotation
				End Site
				{
					OFFSET 0.018740 -0.191071 -0.080234
				}
			}
			JOINT heel.02.L
			{
				OFFSET 0.021374 0.000000 -0.407838
				CHANNELS 3 Xrotation Yrotation Zrotation
				End Site
				{
					OFFSET 0.100182 0.039488 -0.086100
				}
			}
		}
	}
	JOINT thigh.R
	{
		OFFSET -0.105933 0.000000 0.000000
		CHANNELS 6 Xposition Yposition Zposition Xrotation Yrotation Zrotation
		JOINT shin.R
		{
			OFFSET -0.022137 0.000000 -0.422396
			CHANNELS 6 Xposition Yposition Zposition Xrotation Yrotation Zrotation
			JOINT foot.R
			{
				OFFSET -0.022337 0.000000 -0.426218
				CHANNELS 3 Xrotation Yrotation Zrotation
				End Site
				{
					OFFSET -0.019568 -0.199517 -0.083780
				}
			}
			JOINT heel.02.R
			{
				OFFSET -0.022337 0.000000 -0.426218
				CHANNELS 3 Xrotation Yrotation Zrotation
				End Site
				{
					OFFSET -0.104747 0.039488 -0.069588
				}
			}
		}
	}
}
MOTION
Frames: 10
Frame Time: 0.041667
0.048006 -0.042276 0.909631 -0.000000 0.000000 -0.319680 0.000000 -0.000000 -0.000000 -8.144715 3.168239 0.393172 9.983980 0.475131 3.872881 0.000000 0.033765 0.274997 11.752074 3.375210 16.845123 0.000000 0.003762 0.215540 -2.362327 -0.000001 -0.000003 0.000000 0.033765 0.274996 0.386223 0.000159 -0.047477 0.180307 0.000000 0.000000 -21.388585 68.665633 30.777601 0.298295 0.000132 0.001098 22.934191 39.773892 -57.283915 0.000000 0.033765 0.274996 0.440507 0.000207 -0.054131 -0.180307 -0.000000 -0.000000 -27.754081 -68.163519 -39.957768 -0.295075 0.000132 0.001098 23.242808 -40.283937 57.243324 0.000000 -0.000000 -0.000000 3.295401 0.000002 -0.000062 0.000000 -0.000000 -0.000000 3.295401 0.000000 -0.000000 0.105758 -0.000000 -0.006089 7.708273 4.440887 0.105470 0.022250 -0.000000 -0.424548 -1.077241 -2.255510 -0.077583 -7.054750 -7.512670 13.534958 -9.167972 46.284357 32.771251 -0.105758 -0.000000 0.006089 5.915429 1.697124 -0.397673 -0.022137 -0.000000 -0.422396 2.830707 2.634023 -0.213217 -8.698160 6.013397 -9.897041 -16.924102 -47.545903 -39.854195 
0.047984 -0.041861 0.909491 -0.000000 0.000000 -0.206855 0.000000 0.000000 -0.000000 -8.084261 3.173518 0.392127 9.984061 0.473142 3.856334 0.000000 0.033765 0.274997 11.670180 3.366848 16.751117 -0.000000 0.003762 0.215540 -2.317045 -0.000002 -0.000010 0.000000 0.033765 0.274997 0.375452 0.000151 -0.046031 0.180307 -0.000000 0.000000 -21.358529 68.726907 30.701984 0.298295 0.000132 0.001098 22.949403 39.785340 -57.301804 0.000000 0.033765 0.274997 0.429774 0.000198 -0.052748 -0.180307 0.000000 0.000000 -27.689172 -68.186646 -39.852306 -0.295075 0.000132 0.001098 23.193321 -40.279268 57.141824 0.000000 -0.000000 -0.000000 3.280967 0.000002 -0.000083 0.000000 -0.000000 -0.000000 3.280967 -0.000000 0.000000 0.105759 0.000000 -0.006063 7.660060 4.424535 0.105905 0.022250 -0.000000 -0.424548 -1.064100 -2.247048 -0.076560 -7.029401 -7.461393 13.447301 -9.097509 46.236112 32.756310 -0.105759 -0.000000 0.006063 5.918101 1.688662 -0.397417 -0.022137 0.000000 -0.422396 2.824282 2.620776 -0.212407 -8.652844 6.054168 -9.993484 -16.961028 -47.579149 -39.916268 
0.047985 -0.041483 0.909427 -0.000000 0.000000 -0.092905 0.000000 0.000000 0.000000 -8.027246 3.175882 0.390815 9.984552 0.465492 3.793925 0.000000 0.033765 0.274997 11.588179 3.380828 16.725670 0.000000 0.003762 0.215541 -2.274570 0.000000 -0.000005 0.000000 0.033765 0.274996 0.371079 0.000149 -0.045542 0.180307 0.000000 0.000000 -21.352746 68.770484 30.670172 0.298295 0.000132 0.001098 22.915951 39.766717 -57.253511 0.000000 0.033765 0.274996 0.425437 0.000196 -0.052252 -0.180307 -0.000000 -0.000000 -27.639211 -68.206392 -39.769757 -0.295075 0.000132 0.001098 23.159773 -40.265905 57.086694 0.000000 0.000000 0.000000 3.270278 0.000001 -0.000032 0.000000 0.000000 0.000000 3.270278 -0.000000 0.000000 0.105761 -0.000000 -0.006043 7.615593 4.414302 0.105971 0.022250 0.000000 -0.424548 -1.054492 -2.246499 -0.075862 -7.007579 -7.409900 13.357354 -9.023809 46.186450 32.742544 -0.105761 -0.000000 0.006043 5.925757 1.680977 -0.397536 -0.022137 0.000000 -0.422396 2.813302 2.604829 -0.211191 -8.605773 6.096012 -10.092853 -17.007262 -47.618911 -39.984692 
0.047998 -0.041162 0.909420 -0.000000 0.000000 0.005954 0.000000 0.000000 -0.000000 -7.982359 3.177894 0.389798 9.985232 0.455177 3.709752 0.000000 0.033765 0.274997 11.522019 3.404874 16.756213 -0.000000 0.003762 0.215540 -2.238579 -0.000001 -0.000004 0.000000 0.033765 0.274996 0.372495 0.000150 -0.045792 0.180307 0.000000 0.000000 -21.403412 68.786070 30.732754 0.298295 0.000132 0.001098 22.857447 39.724862 -57.181504 0.000000 0.033765 0.274996 0.426819 0.000198 -0.052437 -0.180307 -0.000000 0.000000 -27.589769 -68.223604 -39.689772 -0.295075 0.000132 0.001098 23.138893 -40.244004 57.070749 0.000000 0.000000 0.000000 3.252841 -0.000001 0.000044 0.000000 0.000000 0.000000 3.252810 -0.000000 0.000000 0.105762 -0.000000 -0.006011 7.580499 4.407912 0.105907 0.022250 -0.000000 -0.424548 -1.050874 -2.248524 -0.075620 -6.994315 -7.365320 13.276634 -8.958188 46.140127 32.726175 -0.105762 0.000000 0.006011 5.936464 1.673259 -0.397857 -0.022137 0.000000 -0.422396 2.796785 2.592279 -0.209646 -8.561603 6.130694 -10.177501 -17.050309 -47.656183 -40.050279 
0.048011 -0.040904 0.909431 -0.000000 0.000000 0.075533 0.000000 0.000000 0.000000 -7.952087 3.179443 0.389135 9.985862 0.445584 3.631509 -0.000000 0.033765 0.274997 11.470437 3.430672 16.814345 0.000000 0.003762 0.215541 -2.205277 -0.000000 0.000005 0.000000 0.033765 0.274997 0.381808 0.000156 -0.046822 0.180307 0.000000 -0.000000 -21.473532 68.768250 30.840814 0.298295 0.000132 0.001098 22.803350 39.681507 -57.121084 0.000000 0.033765 0.274997 0.436128 0.000203 -0.053570 -0.180307 0.000000 0.000000 -27.573335 -68.241909 -39.654600 -0.295075 0.000132 0.001098 23.129502 -40.215351 57.088955 0.000000 -0.000000 0.000000 3.232434 0.000002 -0.000083 0.000000 -0.000000 0.000000 3.232435 -0.000000 0.000000 0.105765 -0.000000 -0.005973 7.557879 4.401878 0.105989 0.022250 -0.000000 -0.424548 -1.053344 -2.247049 -0.075785 -6.988441 -7.334255 13.218696 -8.914305 46.106762 32.710490 -0.105765 -0.000000 0.005973 5.947584 1.667632 -0.398313 -0.022137 -0.000000 -0.422396 2.774245 2.585796 -0.207800 -8.523232 6.152453 -10.235145 -17.079877 -47.684348 -40.109436 
0.048033 -0.040702 0.909462 -0.000000 0.000000 0.111018 0.000000 0.000000 -0.000000 -7.933283 3.178240 0.388459 9.986397 0.437738 3.567518 -0.000000 0.033765 0.274997 11.423949 3.459299 16.894504 -0.000000 0.003762 0.215541 -2.174734 -0.000001 -0.000001 0.000000 0.033765 0.274996 0.402526 0.000174 -0.049425 0.180307 0.000000 0.000000 -21.528582 68.717522 30.945818 0.298295 0.000132 0.001098 22.761020 39.641687 -57.081834 0.000000 0.033765 0.274996 0.456811 0.000225 -0.056089 -0.180307 0.000000 -0.000000 -27.688597 -68.253869 -39.805424 -0.295075 0.000132 0.001098 23.151394 -40.191470 57.169049 0.000000 -0.000000 -0.000000 3.220939 -0.000002 0.000077 0.000000 -0.000000 -0.000000 3.220940 -0.000000 -0.000000 0.105766 -0.000000 -0.005952 7.544168 4.397854 0.106062 0.022250 0.000000 -0.424548 -1.055862 -2.243918 -0.075938 -6.986220 -7.319209 13.190308 -8.901179 46.095980 32.704226 -0.105766 -0.000000 0.005952 5.955258 1.666971 -0.398793 -0.022137 -0.000000 -0.422396 2.749579 2.582776 -0.205878 -8.488609 6.159293 -10.262770 -17.091664 -47.699780 -40.155673 
0.048069 -0.040525 0.909526 -0.000000 0.000000 0.125890 0.000000 0.000000 -0.000000 -7.918216 3.173982 0.387514 9.986720 0.430897 3.511537 0.000000 0.033765 0.274997 11.375217 3.492547 17.003437 -0.000000 0.003762 0.215541 -2.154388 0.000000 -0.000004 0.000000 0.033765 0.274997 0.433097 0.000203 -0.053296 0.180307 0.000000 0.000000 -21.561534 68.647663 31.030475 0.298295 0.000132 0.001098 22.713680 39.592021 -57.044804 0.000000 0.033765 0.274997 0.487385 0.000255 -0.059917 -0.180306 -0.000000 -0.000000 -27.989014 -68.248124 -40.223452 -0.295075 0.000132 0.001098 23.219172 -40.188218 57.321359 0.000000 -0.000000 -0.000000 3.223910 -0.000002 0.000054 0.000000 -0.000000 -0.000000 3.223910 -0.000000 0.000000 0.105765 -0.000000 -0.005958 7.531174 4.398841 0.105814 0.022250 0.000000 -0.424548 -1.051575 -2.244230 -0.075633 -6.983746 -7.314316 13.181935 -8.911007 46.103487 32.707771 -0.105765 -0.000000 0.005957 5.957555 1.671345 -0.399174 -0.022137 0.000000 -0.422396 2.728320 2.577842 -0.204169 -8.451956 6.155769 -10.271437 -17.091507 -47.705060 -40.184510 
0.048111 -0.040356 0.909614 -0.000000 0.000000 0.142218 -0.000000 -0.000000 -0.000000 -7.902671 3.171278 0.386747 9.987249 0.424458 3.459353 0.000000 0.033765 0.274997 11.324151 3.522003 17.120684 0.000000 0.003762 0.215540 -2.146611 -0.000001 -0.000001 0.000000 0.033765 0.274997 0.468252 0.000235 -0.057452 0.180307 0.000000 0.000000 -21.563080 68.577722 31.071111 0.298295 0.000132 0.001098 22.649097 39.526195 -56.991433 0.000000 0.033765 0.274997 0.522536 0.000293 -0.064179 -0.180306 0.000000 -0.000000 -28.391594 -68.232531 -40.788421 -0.295075 0.000132 0.001098 23.304838 -40.199980 57.492141 0.000000 -0.000000 -0.000000 3.233661 0.000001 -0.000050 0.000000 -0.000000 -0.000000 3.233663 -0.000000 0.000000 0.105765 -0.000000 -0.005975 7.515231 4.401635 0.105405 0.022250 0.000000 -0.424548 -1.041100 -2.244466 -0.074880 -6.978906 -7.310697 13.177217 -8.923779 46.110686 32.707174 -0.105764 0.000000 0.005975 5.958692 1.677375 -0.399563 -0.022137 -0.000000 -0.422396 2.710042 2.568820 -0.202588 -8.411362 6.151326 -10.280018 -17.091850 -47.708861 -40.203856 
0.048147 -0.040225 0.909705 -0.000000 0.000000 0.170906 0.000000 0.000000 -0.000000 -7.893312 3.176557 0.387128 9.987490 0.418260 3.408263 -0.000000 0.033765 0.274997 11.276631 3.534249 17.202395 0.000000 0.003762 0.215540 -2.140420 -0.000004 -0.000002 -0.000000 0.033765 0.274996 0.506356 0.000276 -0.062097 0.180307 0.000000 0.000000 -21.515332 68.513962 31.039040 0.298295 0.000132 0.001098 22.579588 39.458262 -56.929705 -0.000000 0.033765 0.274997 0.560677 0.000338 -0.068824 -0.180307 0.000000 -0.000000 -28.754041 -68.236206 -41.283900 -0.295075 0.000132 0.001098 23.355513 -40.195615 57.608384 0.000000 0.000000 -0.000000 3.236244 0.000004 -0.000155 0.000000 0.000000 -0.000000 3.236245 -0.000000 0.000000 0.105764 -0.000000 -0.005980 7.502227 4.398915 0.105402 0.022250 -0.000000 -0.424548 -1.032965 -2.234252 -0.074204 -6.973498 -7.305131 13.168962 -8.926450 46.102086 32.686512 -0.105764 -0.000000 0.005980 5.968680 1.681182 -0.400431 -0.022137 -0.000000 -0.422396 2.684508 2.559103 -0.200454 -8.370609 6.153646 -10.301635 -17.101079 -47.719164 -40.230644 
0.048178 -0.040169 0.909787 -0.000000 0.000000 0.201564 -0.000000 0.000000 0.000000 -7.902146 3.190925 0.389130 9.987903 0.411185 3.350736 -0.000000 0.033765 0.274997 11.231836 3.532792 17.234966 -0.000000 0.003762 0.215540 -2.117592 0.000000 0.000000 -0.000000 0.033765 0.274997 0.549153 0.000323 -0.067473 0.180307 0.000000 0.000000 -21.415462 68.454068 30.931246 0.298295 0.000132 0.001098 22.520102 39.400868 -56.875651 -0.000000 0.033765 0.274997 0.603475 0.000390 -0.074164 -0.180306 -0.000000 -0.000000 -28.988201 -68.278860 -41.574900 -0.295075 0.000132 0.001098 23.348479 -40.154911 57.648402 0.000000 0.000000 0.000000 3.224200 -0.000002 0.000066 0.000000 0.000000 0.000000 3.224201 -0.000000 0.000000 0.105765 -0.000000 -0.005958 7.499994 4.389308 0.106001 0.022250 -0.000000 -0.424548 -1.035458 -2.211171 -0.074176 -6.970100 -7.301482 13.163464 -8.922670 46.080745 32.647580 -0.105765 -0.000000 0.005958 5.993040 1.682229 -0.402122 -0.022137 0.000000 -0.422396 2.641376 2.554245 -0.197120 -8.332050 6.161147 -10.332303 -17.113831 -47.734375 -40.272851 
